<?xml version="1.0" encoding="UTF-8" standalone="no"?>
<!-- Created with Inkscape (http://www.inkscape.org/) -->

<svg
   width="256"
   height="256"
   viewBox="0 0 256 256"
   version="1.1"
   id="svg1"
   inkscape:version="1.3.2 (091e20e, 2023-11-25, custom)"
   sodipodi:docname="finish_carotte_256px.svg"
   xmlns:inkscape="http://www.inkscape.org/namespaces/inkscape"
   xmlns:sodipodi="http://sodipodi.sourceforge.net/DTD/sodipodi-0.dtd"
   xmlns:xlink="http://www.w3.org/1999/xlink"
   xmlns="http://www.w3.org/2000/svg"
   xmlns:svg="http://www.w3.org/2000/svg">
  <sodipodi:namedview
     id="namedview1"
     pagecolor="#ffffff"
     bordercolor="#000000"
     borderopacity="0.25"
     inkscape:showpageshadow="2"
     inkscape:pageopacity="0.0"
     inkscape:pagecheckerboard="0"
     inkscape:deskcolor="#d1d1d1"
     inkscape:document-units="px"
     showguides="true"
     inkscape:zoom="1.4142136"
     inkscape:cx="-62.225396"
     inkscape:cy="126.92567"
     inkscape:window-width="1920"
     inkscape:window-height="1017"
     inkscape:window-x="1912"
     inkscape:window-y="-8"
     inkscape:window-maximized="1"
     inkscape:current-layer="layer3">
    <sodipodi:guide
       position="121.53906,130"
       orientation="0,-1"
       id="guide7"
       inkscape:locked="false" />
    <sodipodi:guide
       position="126.00781,169.16406"
       orientation="1,0"
       id="guide8"
       inkscape:locked="false" />
  </sodipodi:namedview>
  <defs
     id="defs1">
    <inkscape:path-effect
       effect="fillet_chamfer"
       id="path-effect7"
       is_visible="true"
       lpeversion="1"
       nodesatellites_param="F,0,0,1,0,3.6284359,0,1 @ F,0,0,1,0,12.093594,0,1 @ F,0,0,1,0,4.0711549,0,1 @ F,0,0,1,0,5.5498757,0,1"
       radius="0"
       unit="px"
       method="auto"
       mode="F"
       chamfer_steps="1"
       flexible="false"
       use_knot_distance="true"
       apply_no_radius="true"
       apply_with_radius="true"
       only_selected="false"
       hide_knots="false" />
    <linearGradient
       id="linearGradient3"
       inkscape:collect="always">
      <stop
         style="stop-color:#603300;stop-opacity:0.96621621;"
         offset="0.20333335"
         id="stop4" />
      <stop
         style="stop-color:#582d00;stop-opacity:0.90878379;"
         offset="0.45333338"
         id="stop5" />
      <stop
         style="stop-color:#603300;stop-opacity:0.88627452;"
         offset="0.80444449"
         id="stop6" />
      <stop
         style="stop-color:#643300;stop-opacity:0.85135138;"
         offset="1"
         id="stop3" />
    </linearGradient>
    <radialGradient
       inkscape:collect="always"
       xlink:href="#linearGradient3"
       id="radialGradient4"
       cx="128"
       cy="128"
       fx="128"
       fy="128"
       r="128"
       gradientUnits="userSpaceOnUse"
       spreadMethod="pad"
       gradientTransform="translate(-1.4375,8.5)" />
    <inkscape:path-effect
       effect="fillet_chamfer"
       id="path-effect7-6"
       is_visible="true"
       lpeversion="1"
       nodesatellites_param="F,0,0,1,0,3.6284359,0,1 @ F,0,0,1,0,12.093594,0,1 @ F,0,0,1,0,4.0711549,0,1 @ F,0,0,1,0,5.5498757,0,1"
       radius="0"
       unit="px"
       method="auto"
       mode="F"
       chamfer_steps="1"
       flexible="false"
       use_knot_distance="true"
       apply_no_radius="true"
       apply_with_radius="true"
       only_selected="false"
       hide_knots="false" />
    <inkscape:path-effect
       effect="fillet_chamfer"
       id="path-effect7-6-8"
       is_visible="true"
       lpeversion="1"
       nodesatellites_param="F,0,0,1,0,3.6284359,0,1 @ F,0,0,1,0,12.093594,0,1 @ F,0,0,1,0,4.0711549,0,1 @ F,0,0,1,0,5.5498757,0,1"
       radius="0"
       unit="px"
       method="auto"
       mode="F"
       chamfer_steps="1"
       flexible="false"
       use_knot_distance="true"
       apply_no_radius="true"
       apply_with_radius="true"
       only_selected="false"
       hide_knots="false" />
    <inkscape:path-effect
       effect="fillet_chamfer"
       id="path-effect7-6-8-7"
       is_visible="true"
       lpeversion="1"
       nodesatellites_param="F,0,0,1,0,3.6284359,0,1 @ F,0,0,1,0,12.093594,0,1 @ F,0,0,1,0,4.0711549,0,1 @ F,0,0,1,0,5.5498757,0,1"
       radius="0"
       unit="px"
       method="auto"
       mode="F"
       chamfer_steps="1"
       flexible="false"
       use_knot_distance="true"
       apply_no_radius="true"
       apply_with_radius="true"
       only_selected="false"
       hide_knots="false" />
  </defs>
  <g
     inkscape:groupmode="layer"
     id="layer3"
     inkscape:label="Carotte_1"
     style="display:inline">
    <g
       inkscape:label="Plantation"
       inkscape:groupmode="layer"
       id="layer1"
       style="display:inline"
       sodipodi:insensitive="true">
      <rect
         style="mix-blend-mode:normal;fill:url(#radialGradient4);fill-rule:evenodd;stroke-width:1.00787"
         id="rect1"
         width="256"
         height="256"
         x="0"
         y="0" />
    </g>
    <g
       id="main"
       style="display:inline">
      <path
         style="fill:#ea9a00;fill-opacity:1;fill-rule:evenodd;stroke-width:1.49999"
         id="path9"
         sodipodi:type="arc"
         sodipodi:cx="126"
         sodipodi:cy="126"
         sodipodi:rx="24"
         sodipodi:ry="24"
         sodipodi:start="0"
         sodipodi:end="6.2831596"
         sodipodi:arc-type="slice"
         d="M 150,126 A 24,24 0 0 1 126.00015,150 24,24 0 0 1 102,126.00031 24,24 0 0 1 125.99954,102 24,24 0 0 1 150,125.99938 L 126,126 Z"
         sodipodi:insensitive="true" />
      <path
         style="fill:#fdb22c;fill-opacity:1;fill-rule:evenodd"
         id="path10"
         sodipodi:type="arc"
         sodipodi:cx="126"
         sodipodi:cy="126"
         sodipodi:rx="18"
         sodipodi:ry="18"
         sodipodi:start="0"
         sodipodi:end="6.2831596"
         sodipodi:arc-type="slice"
         d="M 144,126 A 18,18 0 0 1 126.00012,144 18,18 0 0 1 108,126.00023 18,18 0 0 1 125.99965,108 18,18 0 0 1 144,125.99954 L 126,126 Z"
         sodipodi:insensitive="true" />
      <path
         style="fill:#ffa500;fill-opacity:1;fill-rule:evenodd"
         id="path11"
         sodipodi:type="arc"
         sodipodi:cx="126"
         sodipodi:cy="126"
         sodipodi:rx="10"
         sodipodi:ry="10"
         sodipodi:start="0"
         sodipodi:end="6.2831596"
         sodipodi:arc-type="slice"
         d="M 136,126 A 10,10 0 0 1 126.00006,136 10,10 0 0 1 116,126.00013 10,10 0 0 1 125.99981,116 10,10 0 0 1 136,125.99974 L 126,126 Z"
         sodipodi:insensitive="true" />
    </g>
    <g
       id="leaf0"
       transform="matrix(1.002897,0,0,0.99868107,-0.61574625,-6.6323133)"
       sodipodi:insensitive="true">
      <path
         style="display:inline;fill:#00ff00;fill-opacity:1;fill-rule:evenodd;stroke-width:1.99178"
         d="m 129.28191,118.59006 c 19.12074,-2.3842 3.56904,-13.8125 16.82437,-6.85505 15.30581,-24.524785 -0.99935,-21.778955 8.52684,-50.545745 -9.25935,2.42919 -25.43112,7.50712 -26.55893,16.66217 -1.15731,17.0812 16.83102,36.014335 1.20772,40.738625 z"
         id="path14"
         sodipodi:nodetypes="ccccc" />
      <path
         style="display:inline;fill:#00ff00;fill-opacity:1;fill-rule:evenodd;stroke-width:1.99178"
         d="m 157.81981,99.147742 c 19.12074,-2.3842 6.85029,-12.812495 20.10562,-5.85505 15.30581,-24.52478 -0.99935,-21.77895 8.52684,-50.54574 -9.25935,2.42919 -25.43112,7.50712 -26.55893,16.66217 -1.15731,17.0812 13.54977,35.01433 -2.07353,39.73862 z"
         id="path14-2"
         sodipodi:nodetypes="ccccc" />
      <path
         style="display:inline;fill:#00ff00;fill-opacity:1;fill-rule:evenodd;stroke-width:1.99178"
         d="m 135.44733,125.44728 c 2.3842,-19.12074 14.9375,0.39971 7.98005,-12.85563 24.52479,-15.305804 21.77896,0.99936 50.54575,-8.52684 -2.42919,9.25936 -7.50712,25.43113 -16.66217,26.55894 -17.0812,1.15731 -37.13934,-20.79977 -41.86363,-5.17647 z"
         id="path13"
         sodipodi:nodetypes="ccccc" />
      <path
         style="display:inline;fill:#00ff00;fill-opacity:1;fill-rule:evenodd;stroke-width:1.99178"
         d="m 152.44365,97.843886 c 2.3842,-19.120738 12.8125,-6.850288 5.85505,-20.105628 24.52479,-15.305804 21.77896,0.99936 50.54575,-8.52684 -2.42919,9.25936 -7.50712,25.43113 -16.66217,26.55894 -17.0812,1.15731 -35.01434,-13.54977 -39.73863,2.073528 z"
         id="path13-5"
         sodipodi:nodetypes="ccccc" />
      <path
         style="display:inline;fill:#008000;fill-opacity:1;fill-rule:evenodd;stroke-width:1.99178"
         d="m 126.25,132.8125 c 2.3842,-19.12074 7.81253,-42.850291 19.60505,-55.855623 24.52479,-15.305807 43.77896,-26.500642 57.29575,-40.776845 -3.67919,21.009356 -2.787,46.168115 -16.91217,64.808938 -15.51884,23.56892 -45.01434,21.70023 -59.98863,31.82353 z"
         id="path12"
         sodipodi:nodetypes="ccccc"
         sodipodi:insensitive="true" />
    </g>
    <g
       id="leaf1"
       transform="matrix(-1.002897,0,0,0.99868107,252.6376,-6.6273706)"
       style="display:inline">
      <path
         style="display:inline;fill:#00ff00;fill-opacity:1;fill-rule:evenodd;stroke-width:1.99178"
         d="m 129.28191,118.59006 c 19.12074,-2.3842 3.56904,-13.8125 16.82437,-6.85505 15.30581,-24.524785 -0.99935,-21.778955 8.52684,-50.545745 -9.25935,2.42919 -25.43112,7.50712 -26.55893,16.66217 -1.15731,17.0812 16.83102,36.014335 1.20772,40.738625 z"
         id="path14-9"
         sodipodi:nodetypes="ccccc" />
      <path
         style="display:inline;fill:#00ff00;fill-opacity:1;fill-rule:evenodd;stroke-width:1.99178"
         d="m 157.81981,99.147742 c 19.12074,-2.3842 6.85029,-12.812495 20.10562,-5.85505 15.30581,-24.52478 -0.99935,-21.77895 8.52684,-50.54574 -9.25935,2.42919 -25.43112,7.50712 -26.55893,16.66217 -1.15731,17.0812 13.54977,35.01433 -2.07353,39.73862 z"
         id="path14-2-2"
         sodipodi:nodetypes="ccccc" />
      <path
         style="display:inline;fill:#00ff00;fill-opacity:1;fill-rule:evenodd;stroke-width:1.99178"
         d="m 135.44733,125.44728 c 2.3842,-19.12074 14.9375,0.39971 7.98005,-12.85563 24.52479,-15.305804 21.77896,0.99936 50.54575,-8.52684 -2.42919,9.25936 -7.50712,25.43113 -16.66217,26.55894 -17.0812,1.15731 -37.13934,-20.79977 -41.86363,-5.17647 z"
         id="path13-3"
         sodipodi:nodetypes="ccccc" />
      <path
         style="display:inline;fill:#00ff00;fill-opacity:1;fill-rule:evenodd;stroke-width:1.99178"
         d="m 152.44365,97.843886 c 2.3842,-19.120738 12.8125,-6.850288 5.85505,-20.105628 24.52479,-15.305804 21.77896,0.99936 50.54575,-8.52684 -2.42919,9.25936 -7.50712,25.43113 -16.66217,26.55894 -17.0812,1.15731 -35.01434,-13.54977 -39.73863,2.073528 z"
         id="path13-5-4"
         sodipodi:nodetypes="ccccc" />
      <path
         style="display:inline;fill:#008000;fill-opacity:1;fill-rule:evenodd;stroke-width:1.99178"
         d="m 126.25,132.8125 c 2.3842,-19.12074 7.81253,-42.850291 19.60505,-55.855623 24.52479,-15.305807 43.77896,-26.500642 57.29575,-40.776845 -3.67919,21.009356 -2.787,46.168115 -16.91217,64.808938 -15.51884,23.56892 -45.01434,21.70023 -59.98863,31.82353 z"
         id="path12-2"
         sodipodi:nodetypes="ccccc"
         sodipodi:insensitive="true" />
    </g>
    <g
       id="leaf2"
       transform="matrix(-1.002897,0,0,-0.9986809,252.64947,258.63731)"
       style="display:inline">
      <path
         style="display:inline;fill:#00ff00;fill-opacity:1;fill-rule:evenodd;stroke-width:1.99178"
         d="m 129.28191,118.59006 c 19.12074,-2.3842 3.56904,-13.8125 16.82437,-6.85505 15.30581,-24.524785 -0.99935,-21.778955 8.52684,-50.545745 -9.25935,2.42919 -25.43112,7.50712 -26.55893,16.66217 -1.15731,17.0812 16.83102,36.014335 1.20772,40.738625 z"
         id="path34"
         sodipodi:nodetypes="ccccc" />
      <path
         style="display:inline;fill:#00ff00;fill-opacity:1;fill-rule:evenodd;stroke-width:1.99178"
         d="m 157.81981,99.147742 c 19.12074,-2.3842 6.85029,-12.812495 20.10562,-5.85505 15.30581,-24.52478 -0.99935,-21.77895 8.52684,-50.54574 -9.25935,2.42919 -25.43112,7.50712 -26.55893,16.66217 -1.15731,17.0812 13.54977,35.01433 -2.07353,39.73862 z"
         id="path35"
         sodipodi:nodetypes="ccccc" />
      <path
         style="display:inline;fill:#00ff00;fill-opacity:1;fill-rule:evenodd;stroke-width:1.99178"
         d="m 135.44733,125.44728 c 2.3842,-19.12074 14.9375,0.39971 7.98005,-12.85563 24.52479,-15.305804 21.77896,0.99936 50.54575,-8.52684 -2.42919,9.25936 -7.50712,25.43113 -16.66217,26.55894 -17.0812,1.15731 -37.13934,-20.79977 -41.86363,-5.17647 z"
         id="path36"
         sodipodi:nodetypes="ccccc" />
      <path
         style="display:inline;fill:#00ff00;fill-opacity:1;fill-rule:evenodd;stroke-width:1.99178"
         d="m 152.44365,97.843886 c 2.3842,-19.120738 12.8125,-6.850288 5.85505,-20.105628 24.52479,-15.305804 21.77896,0.99936 50.54575,-8.52684 -2.42919,9.25936 -7.50712,25.43113 -16.66217,26.55894 -17.0812,1.15731 -35.01434,-13.54977 -39.73863,2.073528 z"
         id="path37"
         sodipodi:nodetypes="ccccc" />
      <path
         style="display:inline;fill:#008000;fill-opacity:1;fill-rule:evenodd;stroke-width:1.99178"
         d="m 126.25,132.8125 c 2.3842,-19.12074 7.81253,-42.850291 19.60505,-55.855623 24.52479,-15.305807 43.77896,-26.500642 57.29575,-40.776845 -3.67919,21.009356 -2.787,46.168115 -16.91217,64.808938 -15.51884,23.56892 -45.01434,21.70023 -59.98863,31.82353 z"
         id="path38"
         sodipodi:nodetypes="ccccc"
         sodipodi:insensitive="true" />
    </g>
    <g
       id="g43"
       transform="matrix(1.002897,0,0,-0.9986809,-0.61574625,258.63731)"
       style="display:inline">
      <path
         style="display:inline;fill:#00ff00;fill-opacity:1;fill-rule:evenodd;stroke-width:1.99178"
         d="m 129.28191,118.59006 c 19.12074,-2.3842 3.56904,-13.8125 16.82437,-6.85505 15.30581,-24.524785 -0.99935,-21.778955 8.52684,-50.545745 -9.25935,2.42919 -25.43112,7.50712 -26.55893,16.66217 -1.15731,17.0812 16.83102,36.014335 1.20772,40.738625 z"
         id="path39"
         sodipodi:nodetypes="ccccc" />
      <path
         style="display:inline;fill:#00ff00;fill-opacity:1;fill-rule:evenodd;stroke-width:1.99178"
         d="m 157.81981,99.147742 c 19.12074,-2.3842 6.85029,-12.812495 20.10562,-5.85505 15.30581,-24.52478 -0.99935,-21.77895 8.52684,-50.54574 -9.25935,2.42919 -25.43112,7.50712 -26.55893,16.66217 -1.15731,17.0812 13.54977,35.01433 -2.07353,39.73862 z"
         id="path40"
         sodipodi:nodetypes="ccccc" />
      <path
         style="display:inline;fill:#00ff00;fill-opacity:1;fill-rule:evenodd;stroke-width:1.99178"
         d="m 135.44733,125.44728 c 2.3842,-19.12074 14.9375,0.39971 7.98005,-12.85563 24.52479,-15.305804 21.77896,0.99936 50.54575,-8.52684 -2.42919,9.25936 -7.50712,25.43113 -16.66217,26.55894 -17.0812,1.15731 -37.13934,-20.79977 -41.86363,-5.17647 z"
         id="path41"
         sodipodi:nodetypes="ccccc" />
      <path
         style="display:inline;fill:#00ff00;fill-opacity:1;fill-rule:evenodd;stroke-width:1.99178"
         d="m 152.44365,97.843886 c 2.3842,-19.120738 12.8125,-6.850288 5.85505,-20.105628 24.52479,-15.305804 21.77896,0.99936 50.54575,-8.52684 -2.42919,9.25936 -7.50712,25.43113 -16.66217,26.55894 -17.0812,1.15731 -35.01434,-13.54977 -39.73863,2.073528 z"
         id="path42"
         sodipodi:nodetypes="ccccc" />
      <path
         style="display:inline;fill:#008000;fill-opacity:1;fill-rule:evenodd;stroke-width:1.99178"
         d="m 126.25,132.8125 c 2.3842,-19.12074 7.81253,-42.850291 19.60505,-55.855623 24.52479,-15.305807 43.77896,-26.500642 57.29575,-40.776845 -3.67919,21.009356 -2.787,46.168115 -16.91217,64.808938 -15.51884,23.56892 -45.01434,21.70023 -59.98863,31.82353 z"
         id="path43"
         sodipodi:nodetypes="ccccc"
         sodipodi:insensitive="true" />
    </g>
  </g>
  <g
     inkscape:groupmode="layer"
     id="layer2"
     inkscape:label="Carotte_0"
     style="display:none">
    <path
       style="fill:#00a500;fill-opacity:1;fill-rule:evenodd"
       d="m 119.63125,119.72228 4.61814,-7.77604 A 31.671021,31.671021 141.60518 0 1 141.9589,97.912465 l 19.96415,-6.292927 a 1.1792274,1.1792274 56.350677 0 1 1.25525,1.885768 L 149.10939,110.1555 a 18.813265,18.813265 146.63275 0 1 -8.89128,5.85543 l -18.96849,5.77439 a 1.4060261,1.4060261 51.887251 0 1 -1.61837,-2.06304 z"
       id="path6"
       sodipodi:nodetypes="ccccc"
       inkscape:path-effect="#path-effect7"
       inkscape:original-d="m 117.77846,122.84201 12.64628,-21.29385 35.38114,-11.152533 -20.27846,23.999043 z"
       transform="translate(6.5658758,4.1350123)" />
    <path
       style="fill:#00a500;fill-opacity:1;fill-rule:evenodd"
       d="m 119.63125,119.72228 4.61814,-7.77604 A 31.671021,31.671021 141.60518 0 1 141.9589,97.912465 l 19.96415,-6.292927 a 1.1792274,1.1792274 56.350677 0 1 1.25525,1.885768 L 149.10939,110.1555 a 18.813265,18.813265 146.63275 0 1 -8.89128,5.85543 l -18.96849,5.77439 a 1.4060261,1.4060261 51.887251 0 1 -1.61837,-2.06304 z"
       id="path6-2"
       sodipodi:nodetypes="ccccc"
       inkscape:path-effect="#path-effect7-6"
       inkscape:original-d="m 117.77846,122.84201 12.64628,-21.29385 35.38114,-11.152533 -20.27846,23.999043 z"
       transform="matrix(-1,0,0,1,245.45679,4.1350123)" />
    <path
       style="fill:#00a500;fill-opacity:1;fill-rule:evenodd"
       d="m 119.63125,119.72228 4.61814,-7.77604 A 31.671021,31.671021 141.60518 0 1 141.9589,97.912465 l 19.96415,-6.292927 a 1.1792274,1.1792274 56.350677 0 1 1.25525,1.885768 L 149.10939,110.1555 a 18.813265,18.813265 146.63275 0 1 -8.89128,5.85543 l -18.96849,5.77439 a 1.4060261,1.4060261 51.887251 0 1 -1.61837,-2.06304 z"
       id="path6-2-5"
       sodipodi:nodetypes="ccccc"
       inkscape:path-effect="#path-effect7-6-8"
       inkscape:original-d="m 117.77846,122.84201 12.64628,-21.29385 35.38114,-11.152533 -20.27846,23.999043 z"
       transform="matrix(1,0,0,-1,6.5658758,247.84626)" />
    <path
       style="fill:#00a500;fill-opacity:1;fill-rule:evenodd"
       d="m 119.63125,119.72228 4.61814,-7.77604 A 31.671021,31.671021 141.60518 0 1 141.9589,97.912465 l 19.96415,-6.292927 a 1.1792274,1.1792274 56.350677 0 1 1.25525,1.885768 L 149.10939,110.1555 a 18.813265,18.813265 146.63275 0 1 -8.89128,5.85543 l -18.96849,5.77439 a 1.4060261,1.4060261 51.887251 0 1 -1.61837,-2.06304 z"
       id="path6-2-5-8"
       sodipodi:nodetypes="ccccc"
       inkscape:path-effect="#path-effect7-6-8-7"
       inkscape:original-d="m 117.77846,122.84201 12.64628,-21.29385 35.38114,-11.152533 -20.27846,23.999043 z"
       transform="rotate(180,122.7284,123.92313)" />
    <path
       style="fill:#00a500;fill-opacity:1;fill-rule:evenodd"
       id="path8"
       sodipodi:type="arc"
       sodipodi:cx="126"
       sodipodi:cy="126"
       sodipodi:rx="4"
       sodipodi:ry="4"
       sodipodi:start="0"
       sodipodi:end="6.2831596"
       sodipodi:arc-type="slice"
       d="m 130,126 a 4,4 0 0 1 -3.99997,4 A 4,4 0 0 1 122,126.00005 4,4 0 0 1 125.99992,122 4,4 0 0 1 130,125.9999 l -4,1e-4 z" />
  </g>
</svg>
