<?xml version="1.0" encoding="UTF-8" standalone="no"?>
<!-- Created with Inkscape (http://www.inkscape.org/) -->

<svg
   width="256"
   height="256"
   viewBox="0 0 256 256"
   version="1.1"
   id="svg1"
   inkscape:version="1.3.2 (091e20e, 2023-11-25, custom)"
   sodipodi:docname="sexe_symbole.svg"
   xmlns:inkscape="http://www.inkscape.org/namespaces/inkscape"
   xmlns:sodipodi="http://sodipodi.sourceforge.net/DTD/sodipodi-0.dtd"
   xmlns="http://www.w3.org/2000/svg"
   xmlns:svg="http://www.w3.org/2000/svg">
  <sodipodi:namedview
     id="namedview1"
     pagecolor="#ffffff"
     bordercolor="#000000"
     borderopacity="0.25"
     inkscape:showpageshadow="2"
     inkscape:pageopacity="0.0"
     inkscape:pagecheckerboard="true"
     inkscape:deskcolor="#d1d1d1"
     inkscape:document-units="px"
     inkscape:zoom="0.35355339"
     inkscape:cx="-182.43355"
     inkscape:cy="-711.34942"
     inkscape:window-width="1920"
     inkscape:window-height="1017"
     inkscape:window-x="1912"
     inkscape:window-y="-8"
     inkscape:window-maximized="1"
     inkscape:current-layer="layer2" />
  <defs
     id="defs1" />
  <g
     inkscape:label="Female"
     inkscape:groupmode="layer"
     id="layer1"
     style="display:none">
    <rect
       style="fill:#ff00ff;fill-rule:evenodd;stroke-width:0.0655245"
       id="rect2"
       width="16"
       height="92"
       x="120"
       y="156.85791"
       sodipodi:insensitive="true" />
    <rect
       style="fill:#ff00ff;fill-rule:evenodd;stroke-width:0.05"
       id="rect3"
       width="92"
       height="16"
       x="82"
       y="192"
       sodipodi:insensitive="true" />
    <path
       id="path4"
       style="fill:#ff00ff;fill-rule:evenodd;stroke-width:0.025"
       d="M 128,0 A 80,80 0 0 0 48,80 80,80 0 0 0 128,160 80,80 0 0 0 208,80 80,80 0 0 0 128,0 Z m 0,12 a 68,68 0 0 1 68,68 68,68 0 0 1 -68,68 68,68 0 0 1 -68,-68 68,68 0 0 1 68,-68 z"
       sodipodi:insensitive="true" />
  </g>
  <g
     inkscape:groupmode="layer"
     id="layer2"
     inkscape:label="Male">
    <path
       id="path3"
       style="display:inline;fill:#0000ff;fill-rule:evenodd;stroke-width:0.025"
       d="M 80,96 A 80,80 0 0 0 0,176 80,80 0 0 0 80,256 80,80 0 0 0 160,176 80,80 0 0 0 80,96 Z m 0,12 a 68,68 0 0 1 68,68 68,68 0 0 1 -68,68 68,68 0 0 1 -68,-68 68,68 0 0 1 68,-68 z"
       sodipodi:insensitive="true" />
    <rect
       style="fill:#0000ff;fill-rule:evenodd;stroke-width:0.0523782"
       id="rect4"
       width="16.761051"
       height="96.37603"
       x="172.63881"
       y="-101.92815"
       transform="rotate(45.000001)"
       sodipodi:insensitive="true" />
    <rect
       style="fill:#0000ff;fill-rule:evenodd;stroke-width:0.05"
       id="rect5"
       width="48"
       height="16"
       x="146.142"
       y="50.012943" />
    <rect
       style="fill:#0000ff;fill-rule:evenodd;stroke-width:0.05"
       id="rect6"
       width="16"
       height="48"
       x="190.00177"
       y="61.858288" />
    <path
       style="fill:#0000ff;fill-rule:evenodd;stroke-width:0.05"
       d="M 206.00134,61.889285 194.14587,50.018191 c 12.50004,-0.07637 11.80479,5.732749 11.85547,11.871094 z"
       id="path9"
       sodipodi:nodetypes="ccc" />
  </g>
</svg>
