<?xml version="1.0" encoding="UTF-8" standalone="no"?>
<!-- Uploaded to: SVG Repo, www.svgrepo.com, Generator: SVG Repo Mixer Tools -->

<svg
   fill="#000000"
   height="256"
   width="256"
   version="1.1"
   id="Layer_1"
   viewBox="0 0 163.84 163.84"
   xml:space="preserve"
   sodipodi:docname="sheep_icone.svg"
   inkscape:version="1.3.2 (091e20e, 2023-11-25, custom)"
   xmlns:inkscape="http://www.inkscape.org/namespaces/inkscape"
   xmlns:sodipodi="http://sodipodi.sourceforge.net/DTD/sodipodi-0.dtd"
   xmlns="http://www.w3.org/2000/svg"
   xmlns:svg="http://www.w3.org/2000/svg"><defs
   id="defs2" /><sodipodi:namedview
   id="namedview2"
   pagecolor="#ffffff"
   bordercolor="#000000"
   borderopacity="0.25"
   inkscape:showpageshadow="2"
   inkscape:pageopacity="0.0"
   inkscape:pagecheckerboard="true"
   inkscape:deskcolor="#d1d1d1"
   inkscape:zoom="1.02625"
   inkscape:cx="400"
   inkscape:cy="400"
   inkscape:window-width="1920"
   inkscape:window-height="1017"
   inkscape:window-x="1912"
   inkscape:window-y="-8"
   inkscape:window-maximized="1"
   inkscape:current-layer="layer3" />

<g
   inkscape:groupmode="layer"
   id="layer3"
   inkscape:label="Layer 1"
   transform="matrix(0.31999981,0,0,0.32,9.7788241e-5,0)"><path
     style="fill:#ffccaa;fill-rule:evenodd;stroke-width:0.0487211"
     d="m 397.99597,426.84417 c -25.36624,23.94449 -59.65357,40.00135 -95.00038,38.83602 -8.5191,0.16017 -17.08135,-0.22444 -25.57476,0.39586 -5.48591,3.47695 2.05744,8.14624 1.87271,12.63703 6.77152,19.04072 -10.87154,41.31261 -30.93978,39.07772 -16.47424,-0.54781 -30.43234,-16.38439 -28.10026,-32.85817 0.55892,-11.65929 8.87469,-21.72645 19.30382,-26.36457 4.60301,-5.3072 -4.91426,-7.19213 -8.27562,-9.49059 -8.50975,-4.04276 -15.5323,-10.94862 -23.88293,-14.89266 -5.0708,2.13359 -3.90542,9.81518 -6.08109,14.39603 -11.72302,45.30334 -18.08306,94.64579 -2.17601,139.75845 12.04535,35.06697 40.65491,62.61121 74.27761,77.24986 31.76064,14.09644 66.59032,20.54661 101.17915,21.9413 5.79567,-2.02619 1.9637,-10.03623 3.066,-14.69245 -0.25288,-12.8457 0.50432,-25.89174 -0.3719,-38.61381 -3.34932,-4.21253 -10.61442,-3.25624 -15.20932,-6.26667 -28.24425,-11.42067 -55.16853,-32.94274 -63.65903,-63.29362 -5.0588,-17.14711 0.78726,-37.36538 16.07501,-47.35281 21.00294,-15.23396 47.35814,-17.61988 72.36549,-19.25769 28.09239,-0.81491 56.62485,0.34618 82.8388,10.29008 17.02928,6.75223 33.76598,21.83523 33.40564,41.54181 1.09618,24.0896 -15.2373,44.79469 -32.80233,59.48269 -13.65131,11.06007 -29.88221,18.43147 -46.52745,23.45545 -3.23453,4.5051 -0.57969,11.46769 -1.44377,16.91774 0.25076,11.8717 -0.50381,23.9428 0.3719,35.69055 2.87977,4.20563 9.52553,1.22648 13.96639,1.5541 46.33989,-4.08838 94.81332,-15.60484 130.32903,-47.45895 28.87508,-25.4457 42.19077,-64.41973 43.09154,-102.13583 1.03217,-34.4915 -5.10333,-69.15285 -15.34899,-101.88641 -3.99246,-3.90065 -8.26074,3.25632 -12.00145,4.81206 -7.079,5.31175 -15.24003,9.10942 -22.67453,13.64862 -3.16546,5.41525 5.85264,6.01336 8.79288,9.15314 9.21837,6.63311 13.56458,18.24529 11.65875,29.33359 -1.58525,15.0646 -16.37698,26.35622 -31.26713,25.27786 -19.38878,0.13258 -34.22598,-22.23614 -27.23813,-40.22153 0.38283,-4.01934 6.81916,-8.49151 1.40264,-11.46658 -21.36723,-1.15796 -43.23684,1.93259 -63.7009,-5.48873 -21.65464,-6.4627 -41.43623,-17.99943 -57.71925,-33.7146 -1.54926,-0.73924 -2.48914,-0.98632 -4.00235,0.006 z"
     id="path5"
     transform="scale(0.64)" /><path
     style="fill:#ffccaa;fill-rule:evenodd;stroke-width:0.0487211"
     d="m 663.50678,382.16733 c -9.82201,2.32715 -19.66957,4.79313 -29.60567,6.63063 -7.06069,2.76258 -2.72469,11.36545 -1.24751,16.36506 9.9701,30.62787 41.9636,53.46149 74.49217,50.06715 10.19638,-1.10561 20.98905,-3.21914 29.61771,-8.96418 3.35927,-5.04103 -4.92204,-7.77526 -7.33424,-10.98811 -20.98372,-17.5402 -41.48027,-35.79238 -62.98778,-52.63476 -0.92023,-0.39957 -1.93762,-0.53602 -2.93468,-0.47579 z"
     id="path6"
     transform="scale(0.64)" /><path
     style="fill:#ffccaa;fill-rule:evenodd;stroke-width:0.0487211"
     d="m 135.58161,382.20729 c -7.001,1.95242 -11.4364,8.97882 -17.41969,12.85209 -18.497657,15.92047 -37.791635,31.11027 -55.654307,47.6572 -0.851563,5.86341 7.273672,6.45231 11.104978,8.4729 25.120458,9.11318 55.583139,3.24029 74.453789,-16.06083 11.67733,-10.88584 20.01836,-25.77331 22.01203,-41.65271 -1.11686,-7.18723 -10.30359,-4.86718 -15.24627,-6.87804 -6.48554,-1.11535 -12.66968,-3.99086 -19.25053,-4.39061 z"
     id="path7"
     transform="scale(0.64)" /><path
     style="fill:#ff9955;fill-rule:evenodd;stroke-width:0.0487211"
     d="m 396.61998,542.84409 c -17.30419,0.68677 -35.50031,0.92502 -51.55109,8.11511 -5.51748,4.19698 0.75613,10.8525 3.7226,14.57445 14.70775,15.88833 36.35368,27.16262 58.48432,24.08838 15.43333,-2.027 29.9681,-10.16623 40.88954,-21.10802 3.42219,-4.60104 10.00769,-9.42378 8.66512,-15.79058 -5.65107,-5.20848 -14.26399,-5.69728 -21.51531,-7.36716 -12.78479,-2.02579 -25.76399,-2.63422 -38.69518,-2.51218 z"
     id="path8"
     transform="scale(0.64)" /><path
     style="fill:#ffffff;fill-rule:evenodd;stroke-width:0.0974421"
     d="m 297.60963,111.98614 c -38.71758,0.50048 -74.12454,27.1303 -88.29553,62.70555 -7.05103,17.76511 -28.39718,13.14237 -43.37698,16.02847 -30.2876,4.92666 -56.25382,31.29838 -61.2972,61.40377 -1.70919,19.767 -1.30652,40.90878 11.17625,57.45802 14.81246,24.76832 44.65438,34.0161 72.01879,34.44592 16.66431,-0.34904 22.66505,16.72292 29.19458,28.82535 20.50129,37.831 68.17919,56.96519 109.18088,44.2182 25.30219,-6.16129 43.6578,-26.42095 59.15422,-45.95388 9.93241,-7.08423 26.19921,-7.14276 32.55626,4.79127 16.92874,20.3093 37.91148,39.69583 65.20181,43.46162 40.67825,8.06244 84.41789,-13.80761 102.59594,-51.03913 5.23856,-12.07871 13.79769,-25.40328 28.74923,-24.66124 23.274,0.33169 46.97904,-7.55442 62.57611,-25.44534 27.99815,-29.10481 25.8912,-79.64295 -3.47137,-107.05313 -16.28079,-18.78991 -41.96233,-21.8958 -65.24056,-23.19199 -19.17994,-1.85825 -20.21663,-24.80305 -31.04064,-36.69687 -26.83896,-37.97301 -82.70685,-50.92105 -123.06259,-27.37895 -15.77604,9.21526 -28.96319,25.59405 -48.56501,24.87439 -18.81465,2.74503 -36.1279,-5.53672 -49.73308,-18.06159 -16.52605,-12.81463 -37.5839,-18.74608 -58.32111,-18.73044 z"
     id="path9"
     transform="scale(0.64)" /><path
     d="M 506.285,271.866 453.564,227.619 C 501.641,181.094 471.112,93.726 401.855,90.461 374.346,37.376 304.012,24.426 259.409,64.038 c -1.911,1.701 -4.908,1.699 -6.819,0 C 207.894,24.344 137.587,37.509 110.144,90.46 40.905,93.726 10.343,181.091 58.432,227.62 L 5.714,271.866 c -6.768,5.68 -7.65,15.771 -1.971,22.54 22.611,26.949 59.006,34.003 88.593,21.688 -12.934,105.573 59.526,154.963 163.64,154.97 0.009,0 0.016,10e-4 0.023,10e-4 0.007,0 0.016,-10e-4 0.023,-10e-4 103.716,-0.007 176.63,-49.11 163.649,-154.967 29.582,12.309 65.97,5.259 88.583,-21.692 5.682,-6.768 4.799,-16.859 -1.969,-22.539 z M 58.863,289.771 c -6.464,-0.565 -12.6,-2.469 -18.096,-5.548 l 45.996,-38.604 c 0.563,0.213 9.309,3.725 20.769,4.805 -2.883,23.597 -24.066,41.489 -48.669,39.347 z M 256,376.162 c -18.663,0 -33.171,-14.895 -35.605,-21.631 12.397,-7.518 58.805,-7.524 71.209,0 -2.434,6.737 -16.941,21.631 -35.604,21.631 z m 16,62.447 v -32.371 c 29.278,-7.012 51.945,-31.98 51.945,-53 0,-18.916 -16.272,-27.386 -25.971,-30.75 -21.623,-7.5 -62.317,-7.503 -83.95,0 -22.597,7.839 -25.971,22.63 -25.971,30.75 0,21.021 22.668,45.988 51.947,53 v 32.371 c -97.132,-5.597 -137.392,-57.42 -107.25,-159.561 6.326,5.312 13.282,9.629 20.623,12.963 -8.353,2.833 -14.372,10.721 -14.372,20.031 0,11.69 9.476,21.166 21.166,21.166 11.69,0 21.166,-9.476 21.166,-21.166 0,-4.886 -1.672,-9.373 -4.453,-12.956 27.786,4.481 57.497,-3.583 79.121,-25.002 21.905,21.7 51.953,29.602 79.875,24.857 -2.847,3.605 -4.56,8.148 -4.56,13.099 0,11.69 9.476,21.166 21.166,21.166 11.69,0 21.166,-9.476 21.166,-21.166 0,-9.452 -6.197,-17.451 -14.749,-20.17 7.254,-3.319 14.119,-7.593 20.355,-12.829 C 409.296,380.801 369.535,432.99 272,438.609 Z M 392.701,218.621 c -7.134,-0.523 -13.756,3.75 -16.206,10.479 -16.798,46.163 -80.318,53.633 -106.924,11.015 -6.331,-10.139 -20.954,-9.911 -27.143,0 -26.421,42.313 -89.999,35.496 -106.924,-11.015 -2.449,-6.727 -9.069,-11.003 -16.204,-10.48 -0.032,0.002 -0.065,0.001 -0.097,0.003 -9.748,0.776 -18.914,-1.167 -27.26,-5.777 -45.1,-24.842 -24.459,-94.639 27.165,-90.268 7.191,0.614 13.901,-3.662 16.384,-10.436 14.561,-39.741 64.451,-52.066 95.848,-24.18 14.058,12.483 35.261,12.483 49.317,0 31.459,-27.942 81.308,-15.506 95.848,24.18 2.483,6.776 9.211,11.052 16.384,10.436 51.86,-4.42 72.776,66.575 26.039,90.864 -8.462,4.398 -17,5.823 -26.227,5.179 z m 60.435,71.15 c -24.605,2.144 -45.782,-15.742 -48.669,-39.347 6.651,-0.627 13.89,-2.204 20.769,-4.805 l 45.996,38.604 c -5.495,3.079 -11.632,4.983 -18.096,5.548 z"
     id="path1" /><rect
     style="fill:none;fill-rule:evenodd;stroke-width:0.032"
     id="rect9"
     width="512"
     height="512"
     x="0"
     y="0"
     inkscape:label="background" /></g></svg>
